<?xml version="1.0" encoding="UTF-8" standalone="no"?>
<svg
   xmlns:dc="http://purl.org/dc/elements/1.1/"
   xmlns:cc="http://creativecommons.org/ns#"
   xmlns:rdf="http://www.w3.org/1999/02/22-rdf-syntax-ns#"
   xmlns:svg="http://www.w3.org/2000/svg"
   xmlns="http://www.w3.org/2000/svg"
   xmlns:sodipodi="http://sodipodi.sourceforge.net/DTD/sodipodi-0.dtd"
   xmlns:inkscape="http://www.inkscape.org/namespaces/inkscape"
   id="svg32"
   version="1.1"
   viewBox="0 0 37.638569 48"
   height="48"
   width="37.638569"
   sodipodi:docname="ic-logo-color.svg"
   inkscape:version="0.92.3 (2405546, 2018-03-11)"
   inkscape:label="icon">
  <sodipodi:namedview
     pagecolor="#000000"
     bordercolor="#000000"
     borderopacity="0"
     objecttolerance="10"
     gridtolerance="10"
     guidetolerance="10"
     inkscape:pageopacity="0"
     inkscape:pageshadow="2"
     inkscape:window-width="1366"
     inkscape:window-height="706"
     id="namedview945"
     showgrid="false"
     inkscape:zoom="6.75"
     inkscape:cx="-16.430747"
     inkscape:cy="23.597765"
     inkscape:window-x="-8"
     inkscape:window-y="-8"
     inkscape:window-maximized="1"
     inkscape:current-layer="svg32"
     inkscape:pagecheckerboard="false" />
  <metadata
     id="metadata36">
    <rdf:RDF>
      <cc:Work
         rdf:about="">
        <dc:format>image/svg+xml</dc:format>
        <dc:type
           rdf:resource="http://purl.org/dc/dcmitype/StillImage" />
        <dc:title>ic_home</dc:title>
      </cc:Work>
    </rdf:RDF>
  </metadata>
  <!-- Generator: Sketch 41.2 (35397) - http://www.bohemiancoding.com/sketch -->
  <title
     id="title2">ic_home</title>
  <desc
     id="desc4">Created with Sketch.</desc>
  <defs
     id="defs19" />
  <path
     style="opacity:1;fill:#e73617;fill-opacity:1;stroke:none;stroke-width:0;stroke-miterlimit:4;stroke-dasharray:none;stroke-opacity:1"
     d="m 0.92429,45.726594 c -0.244533,-1.483203 -1.375573,-2.61791 -2.839362,-2.848571 l -0.432136,-0.0681 0.02763,-2.709077 0.02763,-2.709072 0.54167,-0.199071 c 0.618887,-0.227449 1.365769,-0.890275 1.673944,-1.485549 0.212838,-0.411117 0.488506,-1.646425 0.389241,-1.744243 -0.03047,-0.03002 -0.348739,-0.06233 -0.707255,-0.07179 -1.216784,-0.03209 -2.317651,-0.600166 -3.035681,-1.566461 -0.767417,-1.032744 -0.722788,-0.489066 -0.781559,-9.521276 l -0.05279,-8.11523 -0.387774,-0.350134 c -0.530125,-0.478674 -1.151278,-0.494307 -1.673891,-0.04213 -0.573091,0.495849 -0.575314,0.748652 -0.01185,1.342311 0.263486,0.277584 0.577545,0.721856 0.697912,0.987271 0.278452,0.614 0.296956,1.613472 0.04335,2.341429 -0.356966,1.024642 -1.432643,1.899063 -2.516178,2.045416 l -0.473201,0.06393 0.03264,-3.262847 c 0.03155,-3.153823 0.04065,-3.280278 0.272249,-3.784459 0.932353,-2.029655 3.618779,-2.4498 5.095244,-0.796877 0.767474,0.859197 0.738177,0.499794 0.738177,9.055362 0,5.157111 0.03705,7.819502 0.113693,8.171754 0.193764,0.890327 1.015552,1.53097 1.966498,1.53303 0.401112,8.17e-4 1.144939,-0.417248 1.454921,-0.817833 0.152374,-0.196929 0.685302,-1.385422 1.184254,-2.641093 L 3.178863,26.250237 1.352896,20.093491 c -1.004282,-3.386213 -1.873178,-6.404717 -1.93088,-6.70779 -0.153159,-0.804512 -0.128154,-2.754947 0.04562,-3.559865 0.539426,-2.498231 1.99636,-4.66673 4.05386,-6.033771 1.275732,-0.84762 0.705049,-0.920554 5.299754,0.677324 2.227525,0.774654 4.200566,1.485169 4.384539,1.57892 0.504463,0.257067 0.888194,0.895672 0.897147,1.493032 0.0041,0.272693 -0.01948,0.522373 -0.05233,0.554846 C 14.017716,8.128667 13.444318,7.964483 12.77637,7.731347 11.632843,7.332221 11.536609,7.314939 11.128426,7.435454 9.948739,7.78375 9.528125,9.143563 10.323838,10.036629 c 0.225895,0.253535 0.550718,0.427337 1.266581,0.677708 0.529524,0.1852 1.070595,0.375918 1.202381,0.423813 0.237682,0.08638 0.238099,0.08965 0.05189,0.403719 -0.268085,0.452222 -0.932629,0.809217 -1.506357,0.809217 -0.402835,0 -1.188624,-0.244066 -2.807894,-0.872131 -0.150361,-0.0583 -0.181667,-0.0133 -0.181667,0.261089 0,0.565159 0.220344,1.093427 0.611226,1.465397 0.303569,0.28888 0.806885,0.513824 2.642569,1.181028 2.847696,1.035031 3.085821,1.152343 3.863148,1.903183 0.839414,0.810815 1.38131,1.874416 1.536332,3.015427 l 0.111525,0.82084 h 3.351626 3.351627 v -1.214817 c 0,-0.668148 0.03097,-1.367386 0.06881,-1.553857 0.08111,-0.399661 0.724117,-1.062687 1.367498,-1.410081 l 0.444833,-0.240188 -0.03221,3.513802 -0.03221,3.513804 -0.354374,0.644037 c -0.385265,0.700172 -0.855743,1.126095 -1.635764,1.480853 -0.490004,0.222855 -0.613077,0.229301 -5.432456,0.284522 -4.795875,0.05495 -4.95102,0.06298 -5.657779,0.293144 -2.836407,0.923652 -4.862806,2.994156 -5.67744,5.801004 -0.336571,1.159669 -0.335035,3.218712 0.0033,4.386298 0.305022,1.052721 0.768421,1.979001 1.40742,2.813262 0.616904,0.805422 0.789032,1.188204 0.789032,1.754677 0,1.250951 -1.316042,2.287273 -2.471444,1.946151 C 6.376794,42.07143 5.174876,41.419972 3.933115,40.690835 L 1.67537,39.365129 1.387557,39.567083 c -0.650225,0.456256 -0.911617,1.630006 -0.528091,2.37131 0.106033,0.204954 0.603901,0.813148 1.106371,1.35154 l 0.913583,0.978896 h 1.213917 c 1.334593,0 1.769595,0.09802 2.218256,0.499848 0.288979,0.258812 0.680706,0.952511 0.685365,1.213685 0.0018,0.09942 -0.666886,0.127875 -3.003579,0.127875 H 0.987507 l -0.06325,-0.383625 z"
     id="path1492"
     inkscape:connector-curvature="0" />
  <path
     style="opacity:1;fill:#e73617;fill-opacity:1;stroke:none;stroke-width:0;stroke-miterlimit:4;stroke-dasharray:none;stroke-opacity:1"
     d="m 13.742288,43.081897 -1.888533,-3.028323 0.168056,-0.512791 c 0.511164,-1.559671 -0.246504,-3.225129 -1.68729,-3.708905 -0.256032,-0.08598 -0.633254,-0.156299 -0.838274,-0.156299 -0.36747,0 -0.385152,-0.01998 -1.244584,-1.406631 -0.479501,-0.773648 -0.886562,-1.43546 -0.904584,-1.470695 -0.05577,-0.109034 2.949618,-1.412015 4.337016,-1.880315 2.329483,-0.786288 4.327252,-1.097676 5.586942,-0.870826 1.205321,0.21706 1.810271,0.666272 2.032088,1.508947 0.387925,1.473703 -0.807712,3.746343 -3.361127,6.388752 l -1.019981,1.055532 1.633713,2.608661 1.633712,2.608662 1.386292,0.052 c 1.463082,0.05487 1.776928,0.143129 2.235829,0.628826 0.251557,0.266244 0.448118,0.710937 0.448118,1.013809 0,0.191589 -0.106368,0.197941 -3.314434,0.197941 h -3.314432 z"
     id="path1494"
     inkscape:connector-curvature="0" />
  <path
     style="opacity:1;fill:#e73617;fill-opacity:1;stroke:none;stroke-width:0;stroke-miterlimit:4;stroke-dasharray:none;stroke-opacity:1"
     d="m 18.901818,18.008214 c -0.37519,-1.221788 -0.858217,-1.993149 -1.876446,-2.996548 l -0.679601,-0.669704 2.308131,-1.758516 c 1.26947,-0.967183 2.396978,-1.822439 2.50557,-1.900569 0.187133,-0.134637 0.154717,-0.197615 -0.62091,-1.206215 -0.450094,-0.58529 -0.900989,-1.223513 -1.00199,-1.418271 -0.23368,-0.45061 -0.230269,-0.967197 0.0098,-1.4873 0.401024,-0.8687375 0.334154,-0.9176687 2.368423,1.733032 1.017585,1.325936 2.001982,2.69088 2.187546,3.033206 0.297359,0.54856 0.33712,0.715424 0.33511,1.406303 -0.0043,1.426411 -0.346356,1.910762 -2.515408,3.56024 -0.870596,0.662057 -1.872383,1.426841 -2.226188,1.699523 l -0.643284,0.49579 z"
     id="path1496"
     inkscape:connector-curvature="0" />
  <path
     style="opacity:1;fill:#e73617;fill-opacity:1;stroke:none;stroke-width:0;stroke-miterlimit:4;stroke-dasharray:none;stroke-opacity:0"
     id="path3101"
     sodipodi:type="arc"
     sodipodi:cx="-48.296295"
     sodipodi:cy="18.666666"
     sodipodi:rx="9.1851854"
     sodipodi:ry="1.037037"
     sodipodi:start="0"
     sodipodi:end="0.0037153173"
     d="m -39.11111,18.666666 a 9.1851854,1.037037 0 0 1 -6.3e-5,0.0039 l -9.185122,-0.0039 z" />
  <path
     style="opacity:1;fill:none;fill-opacity:1;stroke:none;stroke-width:0;stroke-miterlimit:4;stroke-dasharray:none;stroke-opacity:0"
     d="m -30.327043,56.890145 c -10.258914,-1.158766 -19.272672,-9.044686 -22.884692,-20.02127 -1.20327,-3.656621 -1.707901,-6.902797 -1.707901,-10.986547 0,-8.894832 3.32443,-17.2021129 9.255089,-23.1271635 4.009705,-4.0059136 8.550868,-6.4332542 13.930097,-7.4459079 2.087871,-0.3930473 6.605795,-0.3494157 8.769931,0.084695 3.027593,0.6073142 5.986356,1.7847457 8.674538,3.4520092 3.217714,1.99568936 6.3124595,5.0443048 8.6118714,8.4835008 C -0.94877482,14.403059 0.86145036,23.468333 -0.71083556,32.204648 -1.2843407,35.391302 -2.12932,37.972109 -3.5839645,40.980013 -8.8330519,51.834038 -19.40536,58.123771 -30.327043,56.890145 Z"
     id="path3103"
     inkscape:connector-curvature="0" />
  <path
     style="opacity:1;fill:none;fill-opacity:1;stroke:none;stroke-width:0;stroke-miterlimit:4;stroke-dasharray:none;stroke-opacity:0"
     d="m -30.327043,56.890145 c -10.258914,-1.158766 -19.272672,-9.044686 -22.884692,-20.02127 -1.20327,-3.656621 -1.707901,-6.902797 -1.707901,-10.986547 0,-8.894832 3.32443,-17.2021129 9.255089,-23.1271635 4.009705,-4.0059136 8.550868,-6.4332542 13.930097,-7.4459079 2.087871,-0.3930473 6.605795,-0.3494157 8.769931,0.084695 3.027593,0.6073142 5.986356,1.7847457 8.674538,3.4520092 3.217714,1.99568936 6.3124595,5.0443048 8.6118714,8.4835008 C -0.94877482,14.403059 0.86145036,23.468333 -0.71083556,32.204648 -1.2843407,35.391302 -2.12932,37.972109 -3.5839645,40.980013 -8.8330519,51.834038 -19.40536,58.123771 -30.327043,56.890145 Z"
     id="path3105"
     inkscape:connector-curvature="0" />
  <path
     style="opacity:1;fill:none;fill-opacity:1;stroke:none;stroke-width:0;stroke-miterlimit:4;stroke-dasharray:none;stroke-opacity:0"
     d="m -30.327043,56.890145 c -10.258914,-1.158766 -19.272672,-9.044686 -22.884692,-20.02127 -1.20327,-3.656621 -1.707901,-6.902797 -1.707901,-10.986547 0,-8.894832 3.32443,-17.2021129 9.255089,-23.1271635 4.009705,-4.0059136 8.550868,-6.4332542 13.930097,-7.4459079 2.087871,-0.3930473 6.605795,-0.3494157 8.769931,0.084695 3.027593,0.6073142 5.986356,1.7847457 8.674538,3.4520092 3.217714,1.99568936 6.3124595,5.0443048 8.6118714,8.4835008 C -0.94877482,14.403059 0.86145036,23.468333 -0.71083556,32.204648 -1.2843407,35.391302 -2.12932,37.972109 -3.5839645,40.980013 -8.8330519,51.834038 -19.40536,58.123771 -30.327043,56.890145 Z"
     id="path3107"
     inkscape:connector-curvature="0" />
  <path
     style="opacity:1;fill:none;fill-opacity:1;stroke:none;stroke-width:0;stroke-miterlimit:4;stroke-dasharray:none;stroke-opacity:0"
     d="m -30.327043,56.890145 c -10.258914,-1.158766 -19.272672,-9.044686 -22.884692,-20.02127 -1.20327,-3.656621 -1.707901,-6.902797 -1.707901,-10.986547 0,-8.894832 3.32443,-17.2021129 9.255089,-23.1271635 4.009705,-4.0059136 8.550868,-6.4332542 13.930097,-7.4459079 2.087871,-0.3930473 6.605795,-0.3494157 8.769931,0.084695 3.027593,0.6073142 5.986356,1.7847457 8.674538,3.4520092 3.217714,1.99568936 6.3124595,5.0443048 8.6118714,8.4835008 C -0.94877482,14.403059 0.86145036,23.468333 -0.71083556,32.204648 -1.2843407,35.391302 -2.12932,37.972109 -3.5839645,40.980013 -8.8330519,51.834038 -19.40536,58.123771 -30.327043,56.890145 Z"
     id="path3109"
     inkscape:connector-curvature="0" />
</svg>
